<svg xmlns="http://www.w3.org/2000/svg" viewBox="0 0 685.85 614.96"><g id="Layer_2" data-name="Layer 2"><g id="Layer_1-2" data-name="Layer 1"><path d="M359.14,477c0-5.93.08-11.52,0-17.11-.35-20.61-.79-41.21-1.13-61.81-.18-10.87,3.53-20.5,12.11-27,18.09-13.78,28.47-32.18,33.76-53.71,8-32.61,5.66-64.43-9.25-94.8-6.38-13-15.27-24-28.36-31-16-8.53-34.91-6.38-49,5.39-16.34,13.65-25.18,31.71-29.88,51.93-7.09,30.56-5,60.5,8,89.3,5.6,12.45,13.54,23.17,24.78,31.36,9.73,7.09,14.34,17.11,14.23,29.11-.25,25.6-.67,51.19-1,76.79a16.9,16.9,0,0,1-.24,1.73c-13.52-1.39-26.78-3.72-39.33-8.65-58.19-22.89-93.33-65-103.53-126.88-5.63-34.2.95-66.76,16.82-97.52Q266.12,129.55,325,14.94C328.57,8.05,333,2.54,340.78.65c10.16-2.45,19.57,2.09,24.81,12.08C372,25,378.32,37.31,384.65,49.61q50.12,97.28,100.22,194.53c12.91,25,19.87,51.5,18.43,79.64-2.79,54.89-26.9,98-72.87,128.59-19.11,12.71-40.26,20.16-62.83,23.79C365.14,476.55,362.64,476.64,359.14,477Z"/><path d="M137.34,578.48c7.33,3.35,11.75,8.23,11.86,16.21.11,6.93-2.76,12.3-9,15.07a37,37,0,0,1-13.26,3.47c-13.7.45-27.42.16-41.39.16V546.64a3.49,3.49,0,0,1,1.18-.4c13.6.18,27.21.21,40.8.71a24.1,24.1,0,0,1,9.57,2.87c10.93,5.56,12.13,19.26,2.56,27C139,577.24,138.44,577.66,137.34,578.48Zm-33.1,20.78c7,0,13.82.26,20.6-.12,3.13-.17,5.08-2.63,5.18-5.93.09-3.08-1.38-5.79-4.41-6.11-7.08-.76-14.22-.9-21.37-1.29Zm0-38.75v12.78c6-.3,11.81-.37,17.55-1,3.2-.34,4.91-2.64,4.87-6s-2-5.44-4.88-5.65C116,560.23,110.22,560.51,104.25,560.51Z"/><path d="M685.85,613.56c-4.85,0-9.35.16-13.82-.11a5.93,5.93,0,0,1-3.51-2.19c-8.27-9.84-16.44-19.76-24.65-29.65-.84-1-1.73-2-3.2-3.64v35.36H622.22V546.22c4.82,0,9.53-.15,14.22.1,1.09.06,2.3,1.31,3.13,2.3,7.84,9.38,15.62,18.82,23.42,28.23,1.19,1.43,2.39,2.85,4.33,5.15V546.41h18.53Z"/><path d="M518.71,580c.39-21,17.74-36.42,39.61-35,17.34,1.1,30.29,10.69,34.25,25.35,6.22,23-9.89,43.79-34.65,44.63-18,.61-33-9.35-37.44-25.07A98.83,98.83,0,0,1,518.71,580Zm19.62-.16c-.05,11.16,7.5,19.28,18,19.36s18.22-8.07,18.26-19.14-7.5-19.23-18-19.32S538.38,568.65,538.33,579.81Z"/><path d="M494.48,579.79c0,20.26-15.68,35.11-37.21,35.16S419.81,600.16,419.71,580,435.51,545,457,544.88,494.45,559.6,494.48,579.79Zm-19.23.62c.29-11.15-7-19.34-17.62-19.68-10.33-.34-18.32,7.51-18.63,18.32-.33,11.37,7,19.75,17.65,20.11C467.09,599.51,475,591.58,475.25,580.41Z"/><path d="M353.39,613.35h-19V546.2c5.13,0,10.09-.1,15,0,8.11.2,16.33-.25,24.27,1,14.32,2.24,21.87,12.24,21.11,26.26-.65,11.85-10.26,20.92-23.88,22-5.67.46-11.41.07-17.5.07Zm.09-32.81c5.1,0,9.84.36,14.5-.1s7.37-4,7.59-8.74-2.05-8.85-6.5-9.61c-5.06-.87-10.28-.81-15.59-1.16Z"/><path d="M249.14,607.52c2.13-4.76,4.09-9.17,5.85-13.11,6.07,1.84,11.75,4,17.63,5.18a29.7,29.7,0,0,0,11.45-.46c1.68-.35,4-2.74,4.06-4.31s-2-4.05-3.64-4.66c-4.88-1.8-10.05-2.83-15.08-4.23a70.59,70.59,0,0,1-7.47-2.39c-16.18-6.57-13.6-25-4.47-32,5.89-4.55,12.69-6.17,19.94-6.47,9.35-.39,18.34,1,27.08,5.76-2,4.73-3.85,9.28-5.57,13.41-5.29-1.48-10.21-3.26-15.29-4.13a22.38,22.38,0,0,0-9.93.65,7.2,7.2,0,0,0-4.21,4.86c-.2,1.32,2.15,3.84,3.86,4.47,4.41,1.64,9.11,2.49,13.67,3.73a65.51,65.51,0,0,1,7.86,2.4c6.31,2.58,11.27,6.53,12.17,13.86,1,8.15-1.76,14.73-8.61,19.4-6.11,4.16-13.1,5.44-20.29,5.44C268.06,614.9,258.32,613.18,249.14,607.52Z"/><path d="M0,546.36H59.62v14.93H39.43v52.08H20.37V561.45H0Z"/><path d="M390.42,278.87c-.37,17.48-1.34,29.89-5.31,41.87a36.18,36.18,0,0,1-2.6,6.19,8,8,0,0,1-10.62,3.49,8.12,8.12,0,0,1-4.26-10.35c8.41-23,7.69-46.24,1.63-69.54a45,45,0,0,0-10.75-19.87c-3.52-3.74-3.25-8.68.36-12,3.38-3.07,8.18-2.79,11.71.86,9.24,9.58,14.14,21.43,16.56,34.2C389,263.63,389.78,273.73,390.42,278.87Z"/><path d="M177.58,546.39h18.65v52H228.1V613.3H177.58Z"/></g></g></svg>